<svg id="SvgjsSvg1000" xmlns="http://www.w3.org/2000/svg" version="1.1" xmlns:xlink="http://www.w3.org/1999/xlink" xmlns:svgjs="http://svgjs.com/svgjs" width="177" height="57" viewBox="0 0 177 57"><title>Page 1</title><desc>Created with Avocode.</desc><defs id="SvgjsDefs1001"></defs><path id="SvgjsPath1007" d="M376.24 69.24C376.63 72.85 376.73 75.94999999999999 376.24 79.78999999999999C375.75 83.63 374.65000000000003 84.6 370.6 85.36999999999999C366.55 86.14999999999999 355.99 86.05 352.12 85.36999999999999C348.24 84.69999999999999 346.97 82.63999999999999 346.48 79.78999999999999C345.99 76.94 345.70000000000005 73.27999999999999 346.48 69.24C347.26 65.21 347.77000000000004 64.63 352.12 63.66C356.46 62.69 366.82 62.879999999999995 370.6 63.66C374.38 64.44 375.85 65.64 376.24 69.24Z " fill="#408ecc" fill-opacity="1" transform="matrix(1,0,0,1,-215,-52)"></path><path id="SvgjsPath1008" d="M351 70.68C351 67.36000000000001 352.87 66 356 66C357.81 66 359.24 66.29 360.05 67.19C361.05 68.33 361.11 69.77 361.11 71.63V73.17H356.83000000000004V70.35000000000001C356.83000000000004 69.21000000000001 356.89000000000004 68.52000000000001 356.1 68.52000000000001C355.54 68.52000000000001 355.29 68.89000000000001 355.29 69.55000000000001V78.70000000000002C355.29 79.56000000000002 355.51000000000005 79.93000000000002 356.08000000000004 79.93000000000002C356.81000000000006 79.93000000000002 356.83000000000004 79.34000000000002 356.83000000000004 77.89000000000001V75.85000000000001H361.11V76.47000000000001C361.11 77.62000000000002 361.11 78.62000000000002 360.95 79.34000000000002C360.49 81.44000000000001 358.65999999999997 82.45000000000002 356.06 82.45000000000002C354.39 82.45000000000002 353.19 82.34000000000002 352.22 81.40000000000002C351.04 80.22000000000001 351 78.84000000000002 351 76.58000000000001Z " fill="#fefefe" fill-opacity="1" transform="matrix(1,0,0,1,-215,-52)"></path><path id="SvgjsPath1009" d="M363 70.68C363 67.36000000000001 364.88 66 368 66C369.81 66 371.24 66.29 372.05 67.19C373.06 68.33 373.12 69.77 373.12 71.63V73.17H368.83V70.35000000000001C368.83 69.21000000000001 368.89 68.52000000000001 368.09999999999997 68.52000000000001C367.53999999999996 68.52000000000001 367.28999999999996 68.89000000000001 367.28999999999996 69.55000000000001V78.70000000000002C367.28999999999996 79.56000000000002 367.52 79.93000000000002 368.08 79.93000000000002C368.81 79.93000000000002 368.83 79.34000000000002 368.83 77.89000000000001V75.85000000000001H373.12V76.47000000000001C373.12 77.62000000000002 373.12 78.62000000000002 372.95 79.34000000000002C372.49 81.44000000000001 370.65999999999997 82.45000000000002 368.06 82.45000000000002C366.39 82.45000000000002 365.19 82.34000000000002 364.23 81.40000000000002C363.04 80.22000000000001 363 78.84000000000002 363 76.58000000000001Z " fill="#fefefe" fill-opacity="1" transform="matrix(1,0,0,1,-215,-52)"></path><path id="SvgjsPath1010" d="M232.71 100.6C230.28 102.96 228.18 104.1 224.72 104.1C218.97 104.1 215 100.11999999999999 215 94.52C215 88.77 219.5 85 224.77 85C227.82000000000002 85 230.76000000000002 86.32 232.78 88.65L230.32 90.97C228.67 89.23 226.85 88.31 224.7 88.31C221.25 88.31 218.42999999999998 90.95 218.42999999999998 94.52C218.42999999999998 98.27 221.14 100.78 224.76999999999998 100.78C227.04999999999998 100.78 228.58999999999997 99.87 230.32 98.14Z " fill="#020302" fill-opacity="1" transform="matrix(1,0,0,1,-215,-52)"></path><path id="SvgjsPath1011" d="M235 103.64H238.4V85H235Z " fill="#020302" fill-opacity="1" transform="matrix(1,0,0,1,-215,-52)"></path><path id="SvgjsPath1012" d="M250.85 95.4C250.39 93.83000000000001 248.93 92.86 247.10999999999999 92.86C245.42 92.86 244.11999999999998 93.7 243.45 95.4ZM253.36 101.2C251.9 103.25 249.98000000000002 104.16 247.11 104.16C242.79000000000002 104.16 240 101.02 240 97.07C240 93.39999999999999 242.68 90 247.06 90C251.36 90 254.27 93.04 254.27 97.29C254.27 97.60000000000001 254.25 97.75 254.25 98.06H243.3C243.63000000000002 100.06 245.17000000000002 101.18 247.11 101.18C248.57000000000002 101.18 249.54000000000002 100.77000000000001 250.49 99.85000000000001Z " fill="#020302" fill-opacity="1" transform="matrix(1,0,0,1,-215,-52)"></path><path id="SvgjsPath1013" d="M262.08 101.07C264.18 101.07 265.82 99.5 265.82 97.03999999999999C265.82 94.69 264.23 93.08999999999999 262.08 93.08999999999999C259.83 93.08999999999999 258.41999999999996 94.85999999999999 258.41999999999996 97.07C258.41999999999996 99.38 259.96 101.07 262.08 101.07ZM265.67 102.39C264.46000000000004 103.55 263.19 104.16 261.47 104.16C258.02000000000004 104.16 255.00000000000003 101.22999999999999 255.00000000000003 97.09C255.00000000000003 92.89 257.86 90 261.39000000000004 90C263.03000000000003 90 264.44000000000005 90.61 265.67 91.83V90.36H269.07V103.81H265.67Z " fill="#020302" fill-opacity="1" transform="matrix(1,0,0,1,-215,-52)"></path><path id="SvgjsPath1014" d="M274.94 92.05C275.58 90.66 276.68 90 277.8 90C278.52000000000004 90 278.95 90.2 279.29 90.35L278.24 93.24C277.98 93.11 277.6 92.96 277.24 92.96C276.27 92.96 275.5 94.08 275.43 96.05C275.40000000000003 96.78999999999999 275.40000000000003 97.61999999999999 275.40000000000003 98.36V103.8H272.00000000000006V90.35H274.94000000000005Z " fill="#020302" fill-opacity="1" transform="matrix(1,0,0,1,-215,-52)"></path><path id="SvgjsPath1015" d="M297.7 100.6C295.27 102.96 293.17 104.1 289.71999999999997 104.1C283.96 104.1 279.99999999999994 100.11999999999999 279.99999999999994 94.52C279.99999999999994 88.77 284.49999999999994 85 289.7699999999999 85C292.81999999999994 85 295.75999999999993 86.32 297.7799999999999 88.65L295.31999999999994 90.97C293.6599999999999 89.23 291.8399999999999 88.31 289.68999999999994 88.31C286.23999999999995 88.31 283.42999999999995 90.95 283.42999999999995 94.52C283.42999999999995 98.27 286.13999999999993 100.78 289.7699999999999 100.78C292.0399999999999 100.78 293.5799999999999 99.87 295.31999999999994 98.14Z " fill="#020302" fill-opacity="1" transform="matrix(1,0,0,1,-215,-52)"></path><path id="SvgjsPath1016" d="M306.09 101.07C308.17999999999995 101.07 309.82 99.5 309.82 97.03999999999999C309.82 94.69 308.23 93.08999999999999 306.09 93.08999999999999C303.83 93.08999999999999 302.42999999999995 94.85999999999999 302.42999999999995 97.07C302.42999999999995 99.38 303.9599999999999 101.07 306.09 101.07ZM309.67 102.39C308.46000000000004 103.55 307.18 104.16 305.47 104.16C302.02000000000004 104.16 299 101.22999999999999 299 97.09C299 92.89 301.86 90 305.39 90C307.03 90 308.44 90.61 309.66999999999996 91.83V90.36H313.06999999999994V103.81H309.66999999999996Z " fill="#020302" fill-opacity="1" transform="matrix(1,0,0,1,-215,-52)"></path><path id="SvgjsPath1017" d="M320.99 101.07C323.11 101.07 324.67 99.36999999999999 324.67 97.05999999999999C324.67 94.85999999999999 323.24 93.08999999999999 320.99 93.08999999999999C318.81 93.08999999999999 317.25 94.67999999999999 317.25 97.03999999999999C317.25 99.47 318.89 101.07 320.99 101.07ZM317.4 91.82C318.63 90.61 320.03999999999996 90 321.66999999999996 90C325.17999999999995 90 328.09 92.89 328.09 97.09C328.09 101.22 325.04999999999995 104.16 321.59999999999997 104.16C319.89 104.16 318.62999999999994 103.55 317.4 102.39V108.72H314V90.35H317.4Z " fill="#020302" fill-opacity="1" transform="matrix(1,0,0,1,-215,-52)"></path><path id="SvgjsPath1018" d="M330.74 85H334.14V89.96H336.15999999999997V92.85H334.14V103.41999999999999H330.74V92.85H329V89.96H330.74Z " fill="#020302" fill-opacity="1" transform="matrix(1,0,0,1,-215,-52)"></path><path id="SvgjsPath1019" d="M338.48 103H341.89000000000004V89.53999999999999H338.48ZM340.18 88.38C338.92 88.38 338 87.28999999999999 338 86.05C338 84.89 339 84 340.18 84C341.41 84 342.35 85.01 342.35 86.23C342.35 87.42 341.38 88.38000000000001 340.18 88.38000000000001Z " fill="#020302" fill-opacity="1" transform="matrix(1,0,0,1,-215,-52)"></path><path id="SvgjsPath1020" d="M350.09 100.97C352.19 100.97 353.82 99.45 353.82 97.09C353.82 94.81 352.31 93.19 350.09 93.19C347.96999999999997 93.19 346.42999999999995 94.84 346.42999999999995 97.07C346.42999999999995 99.35 347.88999999999993 100.97 350.09 100.97ZM350.07 104.16C346.13 104.16 343 101.05 343 97.09C343 93.01 346.33 90 350.04 90C354 90 357.26000000000005 93.09 357.26000000000005 97.07C357.26000000000005 100.97 354.21000000000004 104.16 350.07000000000005 104.16Z " fill="#020302" fill-opacity="1" transform="matrix(1,0,0,1,-215,-52)"></path><path id="SvgjsPath1021" d="M361.4 91.72C362.71 90.63 363.90999999999997 90 365.41999999999996 90C367.94999999999993 90 370.08 91.72 370.08 94.61V103.81H366.66999999999996V97.45C366.66999999999996 94.79 366.43999999999994 93.09 364.36999999999995 93.09C363.41999999999996 93.09 362.59999999999997 93.55 362.06999999999994 94.38000000000001C361.37999999999994 95.47000000000001 361.3999999999999 96.68 361.3999999999999 98.08000000000001V103.81000000000002H357.99999999999994V90.35000000000002H361.3999999999999Z " fill="#020302" fill-opacity="1" transform="matrix(1,0,0,1,-215,-52)"></path><path id="SvgjsPath1022" d="M375.79 97.98C373.61 96.89 372.51000000000005 95.57000000000001 372.51000000000005 93.87C372.51000000000005 91.77000000000001 374.30000000000007 90 376.91 90C378.68 90 380.29 90.78 381.39000000000004 92.23L379.29 94.33C378.52000000000004 93.57 377.76000000000005 93.09 376.94 93.09C376.25 93.09 375.71 93.37 375.71 93.9C375.71 94.41000000000001 376.2 94.66000000000001 376.94 95.01L378.19 95.65C380.46999999999997 96.76 381.64 97.95 381.64 99.96000000000001C381.64 102.36000000000001 379.71999999999997 104.16000000000001 376.76 104.16000000000001C374.78999999999996 104.16000000000001 373.18 103.38000000000001 372 101.85000000000001L374.1 99.58000000000001C374.89000000000004 100.48000000000002 376.04 101.15 376.94 101.15C377.78 101.15 378.45 100.67 378.45 100.06C378.45 99.47 377.89 99.02 376.94 98.56Z " fill="#020302" fill-opacity="1" transform="matrix(1,0,0,1,-215,-52)"></path><path id="SvgjsPath1023" d="M385.94 59.11C379.68 54.23 370.82 52.05 362.01 52.019999999999996V51.99999999999999C361.84999999999997 51.99999999999999 361.68 52.00999999999999 361.51 52.00999999999999C361.33 52.00999999999999 361.15 51.99999999999999 360.96999999999997 51.99999999999999L360.97999999999996 52.019999999999996C352.47999999999996 52.24999999999999 342.56999999999994 54.47 336.60999999999996 59.11C335.15999999999997 61.2 328.98999999999995 69.17 331.65999999999997 70.59C333.80999999999995 71.73 340.96 73.47 342.93999999999994 72.4C344.28999999999996 67.94000000000001 342.61999999999995 64.21000000000001 345.53999999999996 62.50000000000001C348.34999999999997 60.86000000000001 355.64 60.14000000000001 361.31999999999994 60.13000000000001L361.3299999999999 60.15000000000001C367.5199999999999 60.000000000000014 373.92999999999995 60.70000000000001 377.00999999999993 62.500000000000014C379.94999999999993 64.21000000000001 378.1599999999999 68.25000000000001 379.61999999999995 72.40000000000002C381.59999999999997 73.47000000000001 388.74999999999994 71.73000000000002 390.88999999999993 70.59000000000002C393.56999999999994 69.17000000000002 387.38999999999993 61.20000000000002 385.93999999999994 59.110000000000014 " fill="#408ecc" fill-opacity="1" transform="matrix(1,0,0,1,-215,-52)"></path><path id="SvgjsPath1024" d="M383.31 100.96V101.67999999999999H383.87C384.04 101.67999999999999 384.23 101.52999999999999 384.23 101.32C384.23 101.11 384.04 100.96 383.87 100.96ZM384.2 102.68L383.69 101.91000000000001H383.31V102.68H383.07V100.73H383.87C384.21 100.73 384.48 100.96000000000001 384.48 101.32000000000001C384.48 101.76 384.09000000000003 101.9 383.98 101.9L384.51 102.68ZM382.22 101.7C382.22 102.51 382.89000000000004 103.19 383.72 103.19C384.55 103.19 385.22 102.50999999999999 385.22 101.7C385.22 100.87 384.55 100.22 383.72 100.22C382.89000000000004 100.22 382.22 100.87 382.22 101.7ZM382 101.7C382 100.75 382.77 100 383.72 100C384.68 100 385.44000000000005 100.75 385.44000000000005 101.7C385.44000000000005 102.64 384.68000000000006 103.4 383.72 103.4C382.77000000000004 103.4 382 102.64 382 101.7Z " fill="#020302" fill-opacity="1" transform="matrix(1,0,0,1,-215,-52)"></path></svg>