<svg id="SvgjsSvg1000" xmlns="http://www.w3.org/2000/svg" version="1.1" xmlns:xlink="http://www.w3.org/1999/xlink" xmlns:svgjs="http://svgjs.com/svgjs" width="150" height="126" viewBox="0 0 150 126"><title>Group 2</title><desc>Created with Avocode.</desc><defs id="SvgjsDefs1001"><filter id="SvgjsFilter1008" width="200%" height="200%" x="-50%" y="-50%"><feMorphology id="SvgjsFeMorphology1009" operator="dilate" radius="0" result="SvgjsFeMorphology1009Out" in="SourceGraphic"></feMorphology><feOffset id="SvgjsFeOffset1010" dx="0" dy="3" result="SvgjsFeOffset1010Out" in="SvgjsFeMorphology1009Out"></feOffset><feGaussianBlur id="SvgjsFeGaussianBlur1011" stdDeviation="10 " result="SvgjsFeGaussianBlur1011Out" in="SvgjsFeOffset1010Out"></feGaussianBlur><feComposite id="SvgjsFeComposite1012" in="SvgjsFeGaussianBlur1011Out" in2="SourceAlpha" operator="out" result="SvgjsFeComposite1012Out"></feComposite></filter><filter id="SvgjsFilter1015" width="200%" height="200%" x="-50%" y="-50%"><feMorphology id="SvgjsFeMorphology1016" operator="dilate" radius="0" result="SvgjsFeMorphology1016Out" in="SourceGraphic"></feMorphology><feOffset id="SvgjsFeOffset1017" dx="1" dy="2" result="SvgjsFeOffset1017Out" in="SvgjsFeMorphology1016Out"></feOffset><feGaussianBlur id="SvgjsFeGaussianBlur1018" stdDeviation="1 " result="SvgjsFeGaussianBlur1018Out" in="SvgjsFeOffset1017Out"></feGaussianBlur><feComposite id="SvgjsFeComposite1019" in="SvgjsFeGaussianBlur1018Out" in2="SourceAlpha" operator="out" result="SvgjsFeComposite1019Out"></feComposite></filter></defs><path id="SvgjsPath1007" d="M745 612.5C745 598.33 746.92 590.41 746.92 590.41C748.3399999999999 581.55 756.9399999999999 573.23 766.16 572.0799999999999C766.16 572.0799999999999 774.74 569.9999999999999 800 569.9999999999999C825.26 569.9999999999999 833.86 572.0799999999999 833.86 572.0799999999999C843.0500000000001 573.3399999999999 851.71 581.55 853.02 590.43C853.02 590.43 855 599.42 855 612.5C855 625.58 853.02 634.57 853.02 634.57C851.63 643.45 843.04 651.63 833.8 652.72C833.8 652.72 820.1999999999999 655 800 655C779.8 655 766.19 652.71 766.19 652.71C756.96 651.57 748.25 643.46 746.9200000000001 634.5600000000001C746.9200000000001 634.5600000000001 745.0000000000001 626.6700000000001 745.0000000000001 612.5000000000001Z " fill="#000000" fill-opacity="0.5" filter="url(#SvgjsFilter1008)" transform="matrix(1,0,0,1,-725,-552.5)"></path><path id="SvgjsPath1013" d="M745 612.5C745 598.33 746.92 590.41 746.92 590.41C748.3399999999999 581.55 756.9399999999999 573.23 766.16 572.0799999999999C766.16 572.0799999999999 774.74 569.9999999999999 800 569.9999999999999C825.26 569.9999999999999 833.86 572.0799999999999 833.86 572.0799999999999C843.0500000000001 573.3399999999999 851.71 581.55 853.02 590.43C853.02 590.43 855 599.42 855 612.5C855 625.58 853.02 634.57 853.02 634.57C851.63 643.45 843.04 651.63 833.8 652.72C833.8 652.72 820.1999999999999 655 800 655C779.8 655 766.19 652.71 766.19 652.71C756.96 651.57 748.25 643.46 746.9200000000001 634.5600000000001C746.9200000000001 634.5600000000001 745.0000000000001 626.6700000000001 745.0000000000001 612.5000000000001Z " fill="#9dc400" fill-opacity="1" transform="matrix(1,0,0,1,-725,-552.5)"></path><path id="SvgjsPath1014" d="M791.79 631.64C789.14 633.1999999999999 787 632.02 787 629.03V596.3C787 593.3 789.15 592.14 791.79 593.6899999999999L819.26 609.8499999999999C821.9 611.3999999999999 821.89 613.93 819.26 615.4799999999999Z " fill="#000000" fill-opacity="0.2" filter="url(#SvgjsFilter1015)" transform="matrix(1,0,0,1,-725,-552.5)"></path><path id="SvgjsPath1020" d="M791.79 631.64C789.14 633.1999999999999 787 632.02 787 629.03V596.3C787 593.3 789.15 592.14 791.79 593.6899999999999L819.26 609.8499999999999C821.9 611.3999999999999 821.89 613.93 819.26 615.4799999999999Z " fill="#ffffff" fill-opacity="1" transform="matrix(1,0,0,1,-725,-552.5)"></path></svg>