<svg id="SvgjsSvg1024" xmlns="http://www.w3.org/2000/svg" version="1.1" xmlns:xlink="http://www.w3.org/1999/xlink" xmlns:svgjs="http://svgjs.com/svgjs" width="55" height="90" viewBox="0 0 55 90"><title>Combined Shape</title><desc>Created with Avocode.</desc><defs id="SvgjsDefs1025"></defs><path id="SvgjsPath1026" d="M648.41 1871.04C650.42 1868.87 651.6899999999999 1865.81 651.6899999999999 1862.56C651.6899999999999 1855.53 646.05 1849.94 638.9399999999999 1849.94C631.8399999999999 1849.94 626.1999999999999 1855.53 626.1999999999999 1862.56C626.1999999999999 1865.81 627.4699999999999 1868.69 629.4699999999999 1871.04V1864C629.4699999999999 1863.64 629.29 1863.1 629.29 1862.56C629.29 1860.58 629.8399999999999 1858.77 630.93 1857.1499999999999C632.5699999999999 1854.6299999999999 635.4799999999999 1852.82 638.76 1852.82C642.04 1852.82 644.95 1854.4399999999998 646.59 1856.97C647.69 1858.59 648.23 1860.4 648.23 1862.38C648.23 1862.92 648.23 1863.2800000000002 648.0500000000001 1863.8200000000002V1871.0400000000002ZM629.66 1880.78V1877.17C624.74 1874.1000000000001 621.4599999999999 1868.69 621.4599999999999 1862.5600000000002C621.4599999999999 1853.0000000000002 629.29 1845.2500000000002 638.9399999999999 1845.2500000000002C648.5999999999999 1845.2500000000002 656.43 1853.0000000000002 656.43 1862.5600000000002C656.43 1866.3500000000001 655.15 1869.9600000000003 652.9699999999999 1872.8400000000001C653.6999999999999 1873.2 654.2399999999999 1873.7400000000002 654.79 1874.2800000000002H655.6999999999999C658.0699999999999 1871.0400000000002 659.52 1866.89 659.52 1862.5600000000002V1862.5600000000002C659.52 1851.2000000000003 650.24 1842.0000000000002 638.76 1842.0000000000002C627.29 1842.0000000000002 618 1851.2000000000003 618 1862.5600000000002C618.36 1870.5000000000002 622.92 1877.3500000000001 629.66 1880.7800000000002M666.63 1881.5V1898.09L663.53 1897.73V1884.75C663.53 1881.32 660.62 1878.43 657.16 1878.43V1896.8300000000002L653.88 1896.2900000000002V1881.5000000000002C653.88 1878.0700000000002 650.96 1875.1900000000003 647.5 1875.1900000000003V1895.3900000000003L644.41 1895.0300000000004V1862.2000000000005C644.41 1859.3100000000004 642.04 1856.9700000000005 639.13 1856.9700000000005C636.21 1856.9700000000005 633.84 1859.3100000000004 633.84 1862.2000000000005V1906.9300000000005C633.84 1908.0100000000004 632.9300000000001 1908.9100000000005 631.84 1908.9100000000005C630.75 1908.9100000000005 629.84 1908.0100000000004 629.84 1906.9300000000005V1894.8500000000006L622.37 1902.6000000000006L622.19 1902.7800000000007V1902.7800000000007V1902.7800000000007C620.37 1904.9500000000007 620 1908.1900000000007 621.6400000000001 1910.5400000000006L630.9300000000001 1923.7000000000007L634.7500000000001 1929.1100000000008C634.7500000000001 1929.1100000000008 634.7500000000001 1929.1100000000008 634.9400000000002 1929.2900000000009L635.1200000000001 1929.470000000001V1929.470000000001C636.2100000000002 1930.920000000001 638.0300000000001 1932.000000000001 640.2200000000001 1932.000000000001H666.6300000000001C670.0900000000001 1932.000000000001 673.0000000000001 1929.1100000000008 673.0000000000001 1925.690000000001V1887.8100000000009C673.0000000000001 1884.3800000000008 670.0900000000001 1881.500000000001 666.6300000000001 1881.500000000001 " fill="#9c373c" fill-opacity="1" transform="matrix(1,0,0,1,-618,-1842)"></path></svg>