<svg id="SvgjsSvg1027" xmlns="http://www.w3.org/2000/svg" version="1.1" xmlns:xlink="http://www.w3.org/1999/xlink" xmlns:svgjs="http://svgjs.com/svgjs" width="89" height="90" viewBox="0 0 89 90"><title>Shape</title><desc>Created with Avocode.</desc><defs id="SvgjsDefs1028"></defs><path id="SvgjsPath1029" d="M1279.18 1872.98C1279 1877.25 1275.45 1880.66 1271.0900000000001 1880.66C1266.7400000000002 1880.66 1263.18 1877.25 1263.0100000000002 1872.98ZM1268.8 1901.24L1249.96 1896.92C1248.97 1896.69 1248.16 1897.3500000000001 1248.16 1898.38V1919.8600000000001C1248.16 1920.8400000000001 1248.78 1922.14 1249.75 1922.38L1268.8 1927.0700000000002C1269.79 1927.3100000000002 1270.6 1926.64 1270.6 1925.6100000000001V1903.5300000000002C1270.6 1902.4900000000002 1269.79 1901.4700000000003 1268.8 1901.2400000000002ZM1272.46 1903.53V1925.61C1272.46 1926.6399999999999 1273.27 1927.3 1274.26 1927.07L1278.24 1926.1599999999999C1278.11 1922.9699999999998 1280.24 1919.4199999999998 1285.01 1918.1599999999999L1294.9 1915.54V1898.3799999999999C1294.9 1897.35 1294.0900000000001 1896.6899999999998 1293.1100000000001 1896.9199999999998L1286.47 1898.4399999999998V1905.09L1281.06 1906.52V1899.68L1274.26 1901.24C1273.27 1901.47 1272.46 1902.49 1272.46 1903.53ZM1253.36 1895.94L1267.6599999999999 1898.8600000000001C1269.7299999999998 1899.2900000000002 1272.1 1899.4900000000002 1272.9199999999998 1899.3200000000002L1281.05 1897.67L1258.77 1893.3100000000002L1251.08 1894.88C1250.26 1895.0400000000002 1251.29 1895.5300000000002 1253.36 1895.94ZM1258.87 1864.05C1257.33 1862.9199999999998 1257.4399999999998 1861.86 1259.12 1860.7C1266.2199999999998 1855.77 1276.8799999999999 1855.94 1283.9599999999998 1860.8400000000001C1285.2199999999998 1861.71 1285.3999999999999 1863.0400000000002 1284.2599999999998 1864.0100000000002C1283.3299999999997 1864.9800000000002 1281.9699999999998 1865.2300000000002 1280.2499999999998 1864.8700000000001C1274.5999999999997 1861.49 1268.9399999999998 1861.6100000000001 1263.2899999999997 1864.7900000000002C1261.4999999999998 1865.2500000000002 1260.0499999999997 1864.9500000000003 1258.8699999999997 1864.0500000000002ZM1307.5 1912.19L1307.51 1912.23C1308.31 1914.97 1308.83 1917.79 1308.99 1920.63C1309.18 1924.0700000000002 1307.46 1926.2900000000002 1303.67 1927.3000000000002L1287.42 1931.6100000000001C1282.8000000000002 1932.8300000000002 1279.79 1931.0100000000002 1278.69 1928.3200000000002L1274.38 1929.3600000000001C1272.17 1929.89 1270.23 1929.68 1268.25 1929.2500000000002H1268.23C1267.13 1929.0000000000002 1266.01 1928.6900000000003 1264.82 1928.4000000000003V1928.3700000000003L1248.3999999999999 1924.1700000000003C1247.29 1923.8900000000003 1246.4099999999999 1922.5400000000002 1246.4099999999999 1921.4100000000003V1908.9600000000003C1246.4099999999999 1908.1700000000003 1245.2499999999998 1907.3500000000004 1244.4599999999998 1907.5400000000002L1233.34 1910.0700000000002C1225.1499999999999 1911.93 1219.8899999999999 1905.0500000000002 1221.1999999999998 1898.44L1227.36 1867.4C1229.11 1858.5600000000002 1244.2199999999998 1860.22 1240.9199999999998 1869.73C1240.1499999999999 1871.96 1240.35 1872.13 1242.8 1870.82C1245.4099999999999 1869.4199999999998 1246.6 1872.71 1244.3999999999999 1874.29L1239.2699999999998 1877.99L1236.2999999999997 1892.79C1235.8499999999997 1895.02 1236.5899999999997 1894.23 1238.3599999999997 1893.6C1245.2199999999996 1891.1399999999999 1250.3199999999997 1886.1799999999998 1258.3599999999997 1887.54L1260.2099999999996 1884.42C1260.5399999999995 1883.88 1261.5399999999995 1883.38 1262.0099999999995 1883.8000000000002L1269.9399999999996 1891.0300000000002L1264.3599999999997 1892.2100000000003L1286.3899999999996 1896.5800000000002L1291.7699999999998 1895.4800000000002C1292.5899999999997 1895.3100000000002 1291.5699999999997 1894.8300000000002 1289.4899999999998 1894.4100000000003L1280.2299999999998 1892.5200000000002L1272.5899999999997 1891.0900000000001L1280.4699999999998 1883.8000000000002C1280.9399999999998 1883.38 1281.6699999999998 1884.2100000000003 1282.2699999999998 1884.42L1284.1599999999999 1887.6100000000001C1295.3899999999999 1891.6100000000001 1304.1299999999999 1900.7700000000002 1307.4999999999998 1912.19ZM1286.11 1849.44C1284.34 1845.88 1279 1843.8200000000002 1273.11 1843.48C1272.9199999999998 1842.64 1272.1499999999999 1842 1271.2299999999998 1842C1270.3099999999997 1842 1269.5399999999997 1842.65 1269.3499999999997 1843.51C1263.7499999999998 1843.9 1259.1499999999996 1846.28 1256.7099999999996 1849.5C1256.0399999999995 1850.38 1253.6399999999996 1855.41 1255.0399999999995 1862L1255.0285799999995 1862.05139C1254.9416899999994 1862.05044 1254.8004099999994 1862.0500000000002 1254.5799999999995 1862.0500000000002C1253.5099999999995 1862.0500000000002 1251.2199999999996 1864.13 1251.4799999999996 1866.42C1251.7199999999996 1868.72 1253.2099999999996 1870.39 1254.9399999999996 1870.74C1256.8199999999997 1878.01 1263.4599999999996 1883.4 1271.4199999999996 1883.4C1279.3799999999997 1883.4 1286.1199999999997 1877.93 1287.9399999999996 1870.5700000000002C1289.4199999999996 1869.9900000000002 1290.5899999999997 1868.5800000000002 1290.8299999999997 1866.42C1291.0699999999997 1864.27 1289.7399999999998 1862.1100000000001 1287.8099999999997 1862.0500000000002C1288.9899999999998 1856.9600000000003 1287.2999999999997 1851.8200000000002 1286.1099999999997 1849.4400000000003ZM1255.02371 1862.07328L1255.02 1862.0900000000001C1254.98766 1862.08353 1254.99808 1862.0779900000002 1255.02371 1862.07328Z " fill="#9c373c" fill-opacity="1" transform="matrix(1,0,0,1,-1221,-1842)"></path></svg>