<svg id="SvgjsSvg1000" xmlns="http://www.w3.org/2000/svg" version="1.1" xmlns:xlink="http://www.w3.org/1999/xlink" xmlns:svgjs="http://svgjs.com/svgjs" width="25" height="24" viewBox="0 0 25 24"><title>facebook-official - FontAwesome</title><desc>Created with Avocode.</desc><defs id="SvgjsDefs1001"></defs><path id="SvgjsPath1007" d="M1207.8 90H1186.34C1185.6 90 1185 90.59 1185 91.33V112.67C1185 113.41 1185.6 114 1186.34 114H1197.8899999999999V104.7H1194.7399999999998V101.08H1197.8899999999999V98.41C1197.8899999999999 95.31 1199.8 93.63 1202.58 93.63C1203.8999999999999 93.63 1205.05 93.72 1205.3799999999999 93.77V97L1203.4599999999998 97.02C1201.9399999999998 97.02 1201.6599999999999 97.72 1201.6599999999999 98.77V101.08H1205.2599999999998L1204.7799999999997 104.7H1201.6599999999999V114H1207.8C1208.54 114 1209.1399999999999 113.41 1209.1399999999999 112.67V91.33C1209.1399999999999 90.59 1208.54 90 1207.8 90Z " fill="#8bb1df" fill-opacity="1" transform="matrix(1,0,0,1,-1185,-90)"></path></svg>