<svg id="SvgjsSvg1011" xmlns="http://www.w3.org/2000/svg" version="1.1" xmlns:xlink="http://www.w3.org/1999/xlink" xmlns:svgjs="http://svgjs.com/svgjs" width="25" height="23" viewBox="0 0 25 23"><title>linkedin - FontAwesome</title><desc>Created with Avocode.</desc><defs id="SvgjsDefs1012"></defs><path id="SvgjsPath1013" d="M1295.48 98.34H1290.3V113.59H1295.48ZM1292.92 91C1291.16 91 1290 92.14 1290 93.63C1290 95.08999999999999 1291.12 96.25999999999999 1292.86 96.25999999999999H1292.8899999999999C1294.6999999999998 96.25999999999999 1295.83 95.08999999999999 1295.81 93.63C1295.8 92.14 1294.7 91 1292.9199999999998 91ZM1314.14 113.59H1308.97V105.43C1308.97 103.39 1308.21 101.99000000000001 1306.34 101.99000000000001C1304.9099999999999 101.99000000000001 1304.06 102.92000000000002 1303.6899999999998 103.83000000000001C1303.5599999999997 104.17000000000002 1303.5099999999998 104.62000000000002 1303.5099999999998 105.08000000000001V113.59000000000002H1298.3399999999997C1298.4099999999996 99.77000000000001 1298.3399999999997 98.34000000000002 1298.3399999999997 98.34000000000002H1303.5099999999998V100.51392000000001C1304.1957999999997 99.46613 1305.4206999999997 97.99000000000001 1308.1799999999998 97.99000000000001C1311.59 97.99000000000001 1314.1399999999999 100.17000000000002 1314.1399999999999 104.85000000000001Z " fill="#8bb1df" fill-opacity="1" transform="matrix(1,0,0,1,-1290,-91)"></path></svg>