<svg id="SvgjsSvg1030" xmlns="http://www.w3.org/2000/svg" version="1.1" xmlns:xlink="http://www.w3.org/1999/xlink" xmlns:svgjs="http://svgjs.com/svgjs" width="82" height="76" viewBox="0 0 82 76"><title>Combined Shape</title><desc>Created with Avocode.</desc><defs id="SvgjsDefs1031"></defs><path id="SvgjsPath1032" d="M958.65 1857.02C958.5699999999999 1857.01 958.49 1857 958.41 1857C956.24 1857 954.74 1858.75 954.74 1860.92C954.74 1863.0500000000002 955.57 1864.79 958.83 1864.8300000000002V1864.8400000000001C974.3000000000001 1865.0600000000002 987.83 1878.2700000000002 987.83 1894.4900000000002C987.83 1910.8300000000002 974.4000000000001 1924.3200000000002 958.0600000000001 1924.3200000000002C942.45 1924.3200000000002 929.5000000000001 1912.5500000000002 928.36 1897.0800000000002H935.24L924.62 1879.42L914 1897.0800000000002H920.51C921.66 1916.6200000000001 938 1932.16 957.93 1932.16C978.5999999999999 1932.16 995.42 1915.25 995.42 1894.5800000000002C995.42 1874.15 978.99 1857.4 958.65 1857.0200000000002ZM958.06 1913.52C959.3499999999999 1913.52 960.41 1914.57 960.41 1915.87C960.41 1917.1799999999998 959.35 1918.2299999999998 958.06 1918.2299999999998C956.76 1918.2299999999998 955.6999999999999 1917.1799999999998 955.6999999999999 1915.87C955.6999999999999 1914.57 956.7599999999999 1913.52 958.06 1913.52ZM973.6 1877.98C974.9 1877.98 975.95 1879.03 975.95 1880.33C975.95 1881.6299999999999 974.9000000000001 1882.6799999999998 973.6 1882.6799999999998C972.3000000000001 1882.6799999999998 971.25 1881.6299999999999 971.25 1880.33C971.25 1879.03 972.3 1877.98 973.6 1877.98ZM973.6 1906.19C974.9 1906.19 975.95 1907.24 975.95 1908.54C975.95 1909.83 974.9000000000001 1910.8899999999999 973.6 1910.8899999999999C972.3000000000001 1910.8899999999999 971.25 1909.83 971.25 1908.54C971.25 1907.24 972.3 1906.19 973.6 1906.19ZM978.82 1892.35C980.13 1892.35 981.1800000000001 1893.3999999999999 981.1800000000001 1894.6899999999998C981.1800000000001 1895.9899999999998 980.1300000000001 1897.0499999999997 978.82 1897.0499999999997C977.5200000000001 1897.0499999999997 976.48 1895.9899999999998 976.48 1894.6899999999998C976.48 1893.3999999999999 977.52 1892.35 978.82 1892.35ZM962.09 1875.27C962.09 1873.43 960.61 1871.85 958.77 1871.85H958.05C956.2099999999999 1871.85 954.76 1873.4299999999998 954.76 1875.27V1894.98L945.11 1904.6100000000001C943.6800000000001 1906.0400000000002 943.76 1908.3500000000001 945.1 1909.7700000000002C946.46 1911.2000000000003 948.82 1911.2000000000003 950.25 1909.7700000000002L960.91 1899.1000000000001C961 1899.0100000000002 961.06 1898.92 961.14 1898.8400000000001C961.73 1898.2400000000002 962.09 1897.41 962.09 1896.5000000000002Z " fill="#9c373c" fill-opacity="1" transform="matrix(1,0,0,1,-914,-1857)"></path></svg>