<svg id="SvgjsSvg1008" xmlns="http://www.w3.org/2000/svg" version="1.1" xmlns:xlink="http://www.w3.org/1999/xlink" xmlns:svgjs="http://svgjs.com/svgjs" width="25" height="20" viewBox="0 0 25 20"><title>twitter - FontAwesome</title><desc>Created with Avocode.</desc><defs id="SvgjsDefs1009"></defs><path id="SvgjsPath1010" d="M1262.14 95.35C1261.25 95.72999999999999 1260.2800000000002 96.00999999999999 1259.2900000000002 96.11999999999999C1260.3100000000002 95.49999999999999 1261.1000000000001 94.52999999999999 1261.4600000000003 93.36999999999999C1260.5100000000002 93.93999999999998 1259.4400000000003 94.35999999999999 1258.3200000000002 94.57999999999998C1257.42 93.59999999999998 1256.13 92.99999999999999 1254.7100000000003 92.99999999999999C1251.9700000000003 92.99999999999999 1249.7600000000002 95.23999999999998 1249.7600000000002 97.98999999999998C1249.7600000000002 98.36999999999998 1249.8100000000002 98.75999999999998 1249.88 99.12999999999998C1245.7800000000002 98.90999999999998 1242.1200000000001 96.93999999999998 1239.68 93.90999999999998C1239.26 94.64999999999998 1239.01 95.49999999999999 1239.01 96.42999999999998C1239.01 98.15999999999998 1239.8799999999999 99.68999999999998 1241.22 100.57999999999998C1240.4 100.54999999999998 1239.64 100.31999999999998 1238.98 99.94999999999999C1238.98 99.96 1238.98 99.99 1238.98 100.00999999999999C1238.98 102.42999999999999 1240.68 104.44 1242.95 104.91C1242.53 105.00999999999999 1242.0900000000001 105.08 1241.65 105.08C1241.3200000000002 105.08 1241.02 105.03999999999999 1240.71 105C1241.3400000000001 106.97 1243.16 108.41 1245.3400000000001 108.46C1243.64 109.8 1241.5100000000002 110.58999999999999 1239.19 110.58999999999999C1238.78 110.58999999999999 1238.4 110.57 1238 110.52999999999999C1240.19 111.94999999999999 1242.79 112.75999999999999 1245.6 112.75999999999999C1254.6899999999998 112.75999999999999 1259.6699999999998 105.16999999999999 1259.6699999999998 98.57C1259.6699999999998 98.36 1259.6699999999998 98.13999999999999 1259.6599999999999 97.92999999999999C1260.62 97.22 1261.4599999999998 96.33999999999999 1262.1399999999999 95.35Z " fill="#8bb1df" fill-opacity="1" transform="matrix(1,0,0,1,-1238,-93)"></path></svg>