<svg id="SvgjsSvg1021" xmlns="http://www.w3.org/2000/svg" version="1.1" xmlns:xlink="http://www.w3.org/1999/xlink" xmlns:svgjs="http://svgjs.com/svgjs" width="85" height="67" viewBox="0 0 85 67"><title>Combined Shape</title><desc>Created with Avocode.</desc><defs id="SvgjsDefs1022"></defs><path id="SvgjsPath1023" d="M353.95 1906.43C349.21 1901.73 342.69 1898.8200000000002 335.5 1898.8200000000002C328.31 1898.8200000000002 321.79 1901.7300000000002 317.05 1906.43C317 1906.48 316.95 1906.53 316.90000000000003 1906.5800000000002L322.88000000000005 1912.5600000000002C322.93000000000006 1912.5100000000002 322.9800000000001 1912.4600000000003 323.03000000000003 1912.41C326.24 1909.24 330.64000000000004 1907.27 335.50000000000006 1907.27C340.36000000000007 1907.27 344.76000000000005 1909.24 347.9700000000001 1912.41C348.0200000000001 1912.46 348.0700000000001 1912.51 348.12000000000006 1912.5600000000002L354.1000000000001 1906.5800000000002C354.05000000000007 1906.5300000000002 354.00000000000006 1906.4800000000002 353.9500000000001 1906.43ZM365.9 1894.48C358.09999999999997 1886.72 347.34999999999997 1881.91 335.5 1881.91C323.65 1881.91 312.9 1886.72 305.1 1894.48C305.05 1894.53 305 1894.58 304.95000000000005 1894.63L310.93000000000006 1900.6100000000001C310.9800000000001 1900.5600000000002 311.0300000000001 1900.5100000000002 311.08000000000004 1900.46C317.35 1894.22 325.98 1890.3600000000001 335.50000000000006 1890.3600000000001C345.02000000000004 1890.3600000000001 353.65000000000003 1894.22 359.9200000000001 1900.46C359.9700000000001 1900.51 360.0200000000001 1900.56 360.07000000000005 1900.6100000000001L366.05000000000007 1894.63C366.00000000000006 1894.5800000000002 365.95000000000005 1894.5300000000002 365.9000000000001 1894.48ZM377.85 1882.53C366.99 1871.7 352.01000000000005 1865 335.5 1865C318.99 1865 304.01 1871.7 293.15 1882.53C293.09999999999997 1882.58 293.04999999999995 1882.6299999999999 293 1882.68L298.98 1888.65C299.03000000000003 1888.6000000000001 299.07 1888.5500000000002 299.13 1888.5C308.46 1879.21 321.32 1873.45 335.5 1873.45C349.68 1873.45 362.54 1879.21 371.87 1888.51C371.93 1888.56 371.97 1888.6 372.02 1888.65L378 1882.68C377.95 1882.63 377.9 1882.5800000000002 377.85 1882.53ZM329 1925C329 1921.13401 332.13401 1918 336 1918C339.86599 1918 343 1921.13401 343 1925C343 1928.86599 339.86599 1932 336 1932C332.13401 1932 329 1928.86599 329 1925Z " fill="#9c373c" fill-opacity="1" transform="matrix(1,0,0,1,-293,-1865)"></path></svg>