<svg id="SvgjsSvg1014" xmlns="http://www.w3.org/2000/svg" version="1.1" xmlns:xlink="http://www.w3.org/1999/xlink" xmlns:svgjs="http://svgjs.com/svgjs" width="28" height="20" viewBox="0 0 28 20"><title>youtube</title><desc>Created with Avocode.</desc><defs id="SvgjsDefs1015"></defs><path id="SvgjsPath1016" d="M1362.88 102.88C1362.88 103.22 1362.71 103.55 1362.41 103.72L1354.46 108.66C1354.31 108.77 1354.1200000000001 108.81 1353.93 108.81C1353.76 108.81 1353.6100000000001 108.77 1353.45 108.69C1353.14 108.52 1352.94 108.17999999999999 1352.94 107.82V97.94C1352.94 97.59 1353.14 97.25 1353.45 97.08C1353.76 96.91 1354.15 96.91 1354.46 97.11L1362.41 102.05C1362.71 102.22 1362.88 102.53999999999999 1362.88 102.88ZM1370.83 102.88C1370.83 100.67 1370.83 98.33 1370.35 96.17999999999999C1370.01 94.66999999999999 1368.79 93.55999999999999 1367.33 93.38999999999999C1363.8899999999999 92.99999999999999 1360.3899999999999 92.99999999999999 1356.9099999999999 92.99999999999999C1353.4399999999998 92.99999999999999 1349.9399999999998 92.99999999999999 1346.4899999999998 93.38999999999999C1345.0299999999997 93.55999999999999 1343.8399999999997 94.66999999999999 1343.4999999999998 96.17999999999999C1342.9999999999998 98.33 1342.9999999999998 100.66999999999999 1342.9999999999998 102.88C1342.9999999999998 105.08999999999999 1342.9999999999998 107.44 1343.4799999999998 109.58C1343.8199999999997 111.1 1345.0299999999997 112.21 1346.4899999999998 112.38C1349.9399999999998 112.75999999999999 1353.4399999999998 112.75999999999999 1356.9099999999999 112.75999999999999C1360.3899999999999 112.75999999999999 1363.8899999999999 112.75999999999999 1367.33 112.38C1368.79 112.21 1370.01 111.1 1370.33 109.58C1370.83 107.44 1370.83 105.09 1370.83 102.88Z " fill="#8bb1df" fill-opacity="1" transform="matrix(1,0,0,1,-1343,-93)"></path></svg>